HIERARCHY
ROOT Hips
{
 OFFSET 0.000000 0.000000 0.000000
 CHANNELS 6 Xposition Yposition Zposition Yrotation Xrotation Zrotation
 JOINT Chest
 {
  OFFSET 0.000000 103.927959 -11.547555
  CHANNELS 3 Yrotation Xrotation Zrotation
  JOINT Chest2
  {
   OFFSET 0.000000 116.259650 0.000000
   CHANNELS 3 Yrotation Xrotation Zrotation
   JOINT Chest3
   {
    OFFSET 0.000000 106.135078 0.000000
    CHANNELS 3 Yrotation Xrotation Zrotation
    JOINT Chest4
    {
     OFFSET 0.000000 106.016608 0.000000
     CHANNELS 3 Yrotation Xrotation Zrotation
     JOINT Neck
     {
      OFFSET 0.000000 148.478086 0.000000
      CHANNELS 3 Yrotation Xrotation Zrotation
      JOINT Head
      {
       OFFSET 0.000000 98.684725 0.000000
       CHANNELS 3 Yrotation Xrotation Zrotation
       End Site
       {
        OFFSET 0.000000 183.657339 0.000000
       }
      }
     }
     JOINT RightCollar
     {
      OFFSET -32.301251 83.229558 0.000000
      CHANNELS 3 Yrotation Xrotation Zrotation
      JOINT RightShoulder
      {
       OFFSET -148.983121 0.000000 0.000000
       CHANNELS 3 Yrotation Xrotation Zrotation
       JOINT RightElbow
       {
        OFFSET 0.000000 -318.416921 0.000000
        CHANNELS 3 Yrotation Xrotation Zrotation
        JOINT RightWrist
        {
         OFFSET 0.000000 -260.384535 0.000000
         CHANNELS 3 Yrotation Xrotation Zrotation
         End Site
         {
          OFFSET 0.000000 -194.729091 0.000000
         }
        }
       }
      }
     }
     JOINT LeftCollar
     {
      OFFSET 32.301251 83.229558 0.000000
      CHANNELS 3 Yrotation Xrotation Zrotation
      JOINT LeftShoulder
      {
       OFFSET 148.983121 0.000000 0.000000
       CHANNELS 3 Yrotation Xrotation Zrotation
       JOINT LeftElbow
       {
        OFFSET 0.000000 -318.416921 0.000000
        CHANNELS 3 Yrotation Xrotation Zrotation
        JOINT LeftWrist
        {
         OFFSET 0.000000 -260.384535 0.000000
         CHANNELS 3 Yrotation Xrotation Zrotation
         End Site
         {
          OFFSET 0.000000 -194.729091 0.000000
         }
        }
       }
      }
     }
    }
   }
  }
 }
 JOINT RightHip
 {
  OFFSET -85.448433 0.000000 0.000000
  CHANNELS 3 Yrotation Xrotation Zrotation
  JOINT RightKnee
  {
   OFFSET 0.000000 -444.902608 0.000000
   CHANNELS 3 Yrotation Xrotation Zrotation
   JOINT RightAnkle
   {
    OFFSET 0.000000 -434.916856 0.000000
    CHANNELS 3 Yrotation Xrotation Zrotation
    JOINT RightToe
    {
     OFFSET 0.000000 -65.483541 148.093546
     CHANNELS 3 Yrotation Xrotation Zrotation
     End Site
     {
      OFFSET 0.000000 -15.533754 66.277348
     }
    }
   }
  }
 }
 JOINT LeftHip
 {
  OFFSET 85.448433 0.000000 0.000000
  CHANNELS 3 Yrotation Xrotation Zrotation
  JOINT LeftKnee
  {
   OFFSET 0.000000 -444.902608 0.000000
   CHANNELS 3 Yrotation Xrotation Zrotation
   JOINT LeftAnkle
   {
    OFFSET 0.000000 -434.916856 0.000000
    CHANNELS 3 Yrotation Xrotation Zrotation
    JOINT LeftToe
    {
     OFFSET 0.000000 -65.483541 148.093546
     CHANNELS 3 Yrotation Xrotation Zrotation
     End Site
     {
      OFFSET 0.000000 -15.533754 66.277348
     }
    }
   }
  }
 }
}
MOTION
Frames: 12
Frame Time: 0.016667
-3896.335534 947.584946 3707.032119 174.134992 6.017949 -7.997025 2.073669 2.796189 3.312393 0.752780 -4.566934 1.463509 0.750412 1.252999 1.539939 0.677643 6.777145 1.161381 -1.207671 12.381962 0.227868 -2.397529 -13.019332 0.940584 2.367970 -3.853501 12.376425 4.600036 -3.576999 -24.681968 11.731982 -8.770802 8.342715 -6.252025 0.927367 1.310237 -1.453749 -4.097154 -8.769167 -4.430382 0.310586 28.496296 -17.527388 -13.751010 -11.462777 5.590720 -5.076359 0.574341 -8.241246 -16.622725 4.528091 -1.743224 24.742238 -0.157846 2.367705 -6.945382 16.767220 0.000000 0.000000 0.000000 1.768006 -14.497616 8.640610 1.565035 24.914583 1.649954 1.986486 -13.148178 -1.872212 0.026707 -3.570514 -0.856842
-3897.439637 946.533072 3705.569534 174.222121 6.018239 -7.849547 2.059378 2.875145 3.257609 0.748704 -4.532253 1.438715 0.746395 1.287685 1.514731 0.672662 6.803157 1.142360 -1.205137 12.298862 0.232493 -2.396373 -13.173579 0.950317 2.469859 -3.644138 12.165715 4.550600 -3.787833 -24.574997 11.682952 -8.888419 8.421235 -6.333954 0.921347 1.306555 -1.423428 -3.941655 -8.743678 -4.366401 0.130071 28.483351 -17.462504 -14.129003 -11.715725 5.712980 -4.844093 0.410566 -7.956707 -16.713629 4.188510 -1.886950 24.995278 -0.139035 2.256287 -7.267354 17.169321 0.000000 0.000000 0.000000 1.703234 -14.324539 8.467303 1.595765 24.881647 1.720588 1.990795 -13.245707 -2.005418 0.024048 -3.593451 -0.766596
-3898.543741 945.481198 3704.106949 174.309251 6.018305 -7.702069 2.044841 2.954141 3.202917 0.744531 -4.497550 1.413972 0.742282 1.322393 1.489564 0.667614 6.829184 1.123368 -1.202603 12.215759 0.237032 -2.395199 -13.327836 0.959900 2.570288 -3.434190 11.955362 4.500966 -3.998591 -24.467766 11.633983 -9.006114 8.499770 -6.415878 0.915219 1.302979 -1.392994 -3.786188 -8.718066 -4.302401 -0.050381 28.469458 -17.396819 -14.506251 -11.970291 5.836162 -4.611625 0.248288 -7.671257 -16.801972 3.848138 -2.029877 25.248525 -0.119503 2.143165 -7.589228 17.571882 -0.000000 0.000000 -0.000000 1.637544 -14.151662 8.294162 1.626606 24.848718 1.791205 1.995133 -13.343298 -2.138590 0.021351 -3.616346 -0.676337
-3899.564694 944.626632 3702.747273 174.372917 6.026860 -7.564223 2.021740 3.067393 3.144646 0.736534 -4.447693 1.387506 0.734377 1.372262 1.462290 0.659537 6.866575 1.102799 -1.158230 12.079814 0.234398 -2.312192 -13.581210 0.939320 2.690456 -3.273433 11.727332 4.604728 -4.108757 -24.425792 11.533940 -9.211810 8.635503 -6.467909 0.901119 1.294271 -1.372040 -3.686750 -8.696931 -4.196561 -0.201363 28.544046 -17.443911 -14.981526 -12.276029 5.961255 -4.455066 0.123915 -7.320832 -16.937914 3.529748 -2.158919 25.573426 -0.091600 2.069321 -8.028603 18.059192 0.000000 0.000000 0.000000 1.569201 -14.003278 8.116974 1.668677 24.803297 1.859714 2.019094 -13.396180 -2.267314 0.018444 -3.656243 -0.577846
-3900.499104 944.051840 3701.503159 174.405566 6.037500 -7.448002 1.991863 3.221082 3.087283 0.725239 -4.379903 1.361268 0.723200 1.440063 1.434904 0.648956 6.917405 1.082149 -1.066116 11.885414 0.218030 -2.132988 -13.944280 0.873172 2.858484 -3.140008 11.490657 4.914936 -4.125069 -24.491641 11.303664 -9.503464 8.831394 -6.463652 0.916328 1.297421 -1.390538 -3.659541 -8.687177 -3.976480 -0.359817 28.673147 -17.651850 -15.524215 -12.582422 6.060642 -4.429192 0.044489 -6.854086 -17.129657 3.238624 -2.311555 25.994617 -0.066006 2.051658 -8.636304 18.743133 -0.000000 0.000000 0.000000 1.497174 -13.886999 7.934435 1.754231 24.746314 1.938894 2.042131 -13.368182 -2.387078 0.015118 -3.738186 -0.463236
-3901.350365 943.674357 3700.361954 174.414788 6.056834 -7.341406 1.953097 3.408894 3.026160 0.710006 -4.297018 1.333251 0.708110 1.522963 1.405336 0.635247 6.979548 1.059859 -0.932569 11.638137 0.193410 -1.871157 -14.406225 0.773687 3.045507 -3.055950 11.234813 5.377857 -4.041402 -24.626571 11.021069 -9.883823 9.083913 -6.429523 0.923742 1.295319 -1.418621 -3.688306 -8.681754 -3.713639 -0.489860 28.889369 -17.972486 -16.167754 -12.933388 6.160779 -4.480265 0.001951 -6.321000 -17.368312 2.967267 -2.449567 26.487074 -0.029714 2.068597 -9.366432 19.507658 -0.000000 -0.000000 0.000000 1.422901 -13.795428 7.747690 1.850755 24.676729 2.015827 2.084571 -13.295416 -2.502404 0.011404 -3.837186 -0.340402
-3902.045503 943.444093 3699.388601 174.399963 6.113175 -7.218055 1.890736 3.646136 2.943747 0.685161 -4.192400 1.295721 0.683464 1.627618 1.365297 0.613570 7.058000 1.029700 -0.734375 11.301853 0.170536 -1.486076 -15.033974 0.649463 3.186701 -3.137629 10.911878 5.988157 -3.740032 -24.773706 10.870166 -10.451030 9.435851 -6.414665 0.804703 1.230081 -1.375934 -3.780348 -8.665272 -3.578427 -0.453155 29.384193 -18.371269 -17.113449 -13.511531 6.343982 -4.523369 0.009435 -5.808653 -17.678750 2.718110 -2.444979 27.047093 0.063015 2.105600 -10.191314 20.092729 0.000000 0.000000 0.000000 1.348299 -13.730499 7.556236 1.872277 24.579409 2.050240 2.227371 -13.241468 -2.622533 0.007645 -3.895279 -0.224818
-3902.555732 943.386802 3698.614579 174.355488 6.209103 -7.073038 1.785044 3.944784 2.839982 0.641892 -4.060836 1.248806 0.640457 1.759238 1.314000 0.577252 7.156639 0.991087 -0.434641 10.845345 0.139492 -0.900599 -15.885349 0.463041 3.252648 -3.423254 10.487115 6.830679 -3.239342 -24.853025 10.968191 -11.174431 9.808465 -6.402562 0.550940 1.061728 -1.159735 -3.910697 -8.664591 -3.710015 -0.261467 30.241308 -18.847042 -18.401125 -14.372344 6.677848 -4.531956 0.111193 -5.344639 -18.061579 2.497556 -2.238233 27.664857 0.238901 2.178280 -11.151865 20.376678 0.000000 0.000000 -0.000000 1.279482 -13.671751 7.359106 1.753131 24.421064 2.022970 2.546292 -13.221583 -2.762279 0.004022 -3.883746 -0.118672
-3902.909838 943.476731 3698.008410 174.287290 6.342247 -6.911393 1.654160 4.292195 2.714155 0.588439 -3.907808 1.192209 0.587274 1.912318 1.251970 0.532481 7.271348 0.944389 -0.071546 10.299513 0.105968 -0.186932 -16.901276 0.237919 3.271242 -3.878218 9.999268 7.825577 -2.527607 -24.941082 11.197432 -12.095569 10.257734 -6.406932 0.175785 0.822021 -0.872600 -4.104647 -8.657150 -3.948733 0.103366 31.380646 -19.386297 -20.022982 -15.419826 7.094782 -4.534772 0.263007 -4.899875 -18.517166 2.297275 -1.884395 28.348234 0.480228 2.279178 -12.203740 20.470257 0.000000 -0.000000 -0.000000 1.210112 -13.639989 7.157510 1.559769 24.234850 1.955237 2.965802 -13.220166 -2.906497 0.000659 -3.831376 -0.019742
-3903.121211 943.586537 3697.540610 174.212313 6.533474 -6.721670 1.539425 4.666830 2.548156 0.544422 -3.742677 1.117695 0.543499 2.077493 1.172993 0.493530 7.395167 0.884871 0.265337 9.721081 0.104231 0.467882 -17.975632 0.078958 3.263890 -4.508618 9.510852 8.718727 -1.438763 -25.209997 11.384440 -13.430130 11.020558 -6.518681 -0.409308 0.557640 -0.741152 -4.444498 -8.548987 -4.006758 0.821511 32.745172 -19.931490 -22.113086 -16.595870 7.475448 -4.531478 0.344625 -4.475626 -19.070224 2.096998 -1.426110 29.119838 0.768145 2.362006 -13.189054 20.466212 0.000000 0.000000 0.000000 1.123730 -13.699193 6.954598 1.403988 24.105443 1.865890 3.340057 -13.254863 -3.020067 -0.002074 -3.766377 0.063079
-3903.197494 943.776520 3697.200804 174.134118 6.787547 -6.511214 1.444504 5.055099 2.339610 0.511799 -3.571450 1.024239 0.511093 2.248755 1.076232 0.461836 7.523581 0.811864 0.552279 9.130665 0.151157 1.008536 -19.071276 0.031461 3.309992 -5.401478 9.060209 9.448891 0.223115 -25.724995 11.406187 -15.243902 12.163520 -6.780564 -1.389485 0.280089 -0.938629 -4.987625 -8.335543 -3.730834 2.028135 34.382038 -20.553528 -24.817055 -17.798951 7.759036 -4.476101 0.228585 -4.052769 -19.713000 1.889402 -0.859450 29.978579 1.137812 2.281992 -14.151396 20.488727 0.000000 -0.000000 0.000000 1.009064 -13.838767 6.754782 1.317085 24.003105 1.770787 3.622979 -13.318426 -3.103959 -0.004391 -3.683083 0.136606
-3903.131044 943.986379 3696.999366 174.050037 7.099863 -6.272875 1.362830 5.470558 2.090999 0.487558 -3.388129 0.912936 0.487050 2.432091 0.962464 0.435198 7.661058 0.725937 0.812176 8.507029 0.229987 1.485658 -20.228384 0.053754 3.329046 -6.468585 8.610604 10.067903 2.266691 -26.410632 11.361853 -17.496619 13.594393 -7.128853 -2.584813 -0.035024 -1.293324 -5.671280 -8.002361 -3.224919 3.584936 36.238566 -21.173012 -28.019117 -19.041605 8.007824 -4.423064 0.039741 -3.647290 -20.453111 1.678849 -0.180626 30.922974 1.567364 2.186159 -15.045388 20.416676 -0.000000 -0.000000 0.000000 0.878476 -14.069945 6.554959 1.267242 23.957245 1.652477 3.860699 -13.418449 -3.157543 -0.006071 -3.587043 0.193925
